<mxfile host="65bd71144e">
    <diagram id="hER62Y9z5baMxJmo3mpP" name="Page-1">
        <mxGraphModel dx="1216" dy="720" grid="1" gridSize="10" guides="1" tooltips="1" connect="1" arrows="1" fold="1" page="1" pageScale="1" pageWidth="850" pageHeight="1100" math="0" shadow="0">
            <root>
                <mxCell id="0"/>
                <mxCell id="1" parent="0"/>
                <mxCell id="3" value="Client Application" style="swimlane;" vertex="1" parent="1">
                    <mxGeometry x="140" y="60" width="210" height="330" as="geometry"/>
                </mxCell>
                <mxCell id="6" style="edgeStyle=none;html=1;exitX=0.5;exitY=1;exitDx=0;exitDy=0;entryX=0.5;entryY=0;entryDx=0;entryDy=0;" edge="1" parent="3" source="4" target="5">
                    <mxGeometry relative="1" as="geometry">
                        <Array as="points"/>
                    </mxGeometry>
                </mxCell>
                <mxCell id="4" value="GUI Module" style="rounded=0;whiteSpace=wrap;html=1;" vertex="1" parent="3">
                    <mxGeometry x="10" y="30" width="120" height="40" as="geometry"/>
                </mxCell>
                <mxCell id="9" style="edgeStyle=none;html=1;exitX=0.5;exitY=1;exitDx=0;exitDy=0;entryX=0.5;entryY=0;entryDx=0;entryDy=0;" edge="1" parent="3" source="5" target="7">
                    <mxGeometry relative="1" as="geometry"/>
                </mxCell>
                <mxCell id="5" value="Communication Module" style="rounded=0;whiteSpace=wrap;html=1;" vertex="1" parent="3">
                    <mxGeometry x="10" y="150" width="120" height="40" as="geometry"/>
                </mxCell>
                <mxCell id="7" value="Security Module" style="rounded=0;whiteSpace=wrap;html=1;" vertex="1" parent="3">
                    <mxGeometry x="10" y="270" width="120" height="40" as="geometry"/>
                </mxCell>
                <mxCell id="8" value="send / recives data" style="text;html=1;align=center;verticalAlign=middle;resizable=0;points=[];autosize=1;strokeColor=none;fillColor=none;" vertex="1" parent="3">
                    <mxGeometry x="70" y="95" width="120" height="30" as="geometry"/>
                </mxCell>
                <mxCell id="10" value="secures communication" style="text;html=1;align=center;verticalAlign=middle;resizable=0;points=[];autosize=1;strokeColor=none;fillColor=none;" vertex="1" parent="3">
                    <mxGeometry x="60" y="220" width="150" height="30" as="geometry"/>
                </mxCell>
                <mxCell id="13" value="" style="edgeStyle=none;html=1;" edge="1" parent="1" source="12" target="7">
                    <mxGeometry relative="1" as="geometry"/>
                </mxCell>
                <mxCell id="12" value="Security Protocols" style="swimlane;" vertex="1" parent="1">
                    <mxGeometry x="140" y="420" width="380" height="200" as="geometry"/>
                </mxCell>
                <mxCell id="15" value="HMAC-SHA256" style="text;html=1;align=center;verticalAlign=middle;resizable=0;points=[];autosize=1;strokeColor=none;fillColor=none;fontSize=12;" vertex="1" parent="12">
                    <mxGeometry x="15" y="80" width="110" height="30" as="geometry"/>
                </mxCell>
                <mxCell id="17" value="" style="ellipse;whiteSpace=wrap;html=1;aspect=fixed;" vertex="1" parent="12">
                    <mxGeometry x="250" y="50" width="20" height="20" as="geometry"/>
                </mxCell>
                <mxCell id="18" value="AES-256 Encryption" style="text;html=1;align=center;verticalAlign=middle;resizable=0;points=[];autosize=1;strokeColor=none;fillColor=none;fontSize=12;" vertex="1" parent="12">
                    <mxGeometry x="195" y="80" width="130" height="30" as="geometry"/>
                </mxCell>
                <mxCell id="20" value="RSA-2048 Encryption" style="text;html=1;align=center;verticalAlign=middle;resizable=0;points=[];autosize=1;strokeColor=none;fillColor=none;fontSize=12;" vertex="1" parent="12">
                    <mxGeometry y="155" width="140" height="30" as="geometry"/>
                </mxCell>
                <mxCell id="23" value="" style="ellipse;whiteSpace=wrap;html=1;aspect=fixed;" vertex="1" parent="12">
                    <mxGeometry x="50" y="50" width="20" height="20" as="geometry"/>
                </mxCell>
                <mxCell id="24" value="" style="ellipse;whiteSpace=wrap;html=1;aspect=fixed;" vertex="1" parent="12">
                    <mxGeometry x="50" y="120" width="20" height="20" as="geometry"/>
                </mxCell>
                <mxCell id="28" value="" style="edgeStyle=none;html=1;fontSize=12;entryX=1;entryY=0.75;entryDx=0;entryDy=0;" edge="1" parent="1" source="25" target="5">
                    <mxGeometry relative="1" as="geometry"/>
                </mxCell>
                <mxCell id="25" value="Serial Communication" style="swimlane;fontSize=12;" vertex="1" parent="1">
                    <mxGeometry x="400" y="300" width="200" height="90" as="geometry"/>
                </mxCell>
                <mxCell id="26" value="" style="ellipse;whiteSpace=wrap;html=1;aspect=fixed;" vertex="1" parent="25">
                    <mxGeometry x="90" y="30" width="20" height="20" as="geometry"/>
                </mxCell>
                <mxCell id="27" value="Request - Response Mechanism" style="text;html=1;align=center;verticalAlign=middle;resizable=0;points=[];autosize=1;strokeColor=none;fillColor=none;fontSize=12;" vertex="1" parent="25">
                    <mxGeometry y="60" width="200" height="30" as="geometry"/>
                </mxCell>
                <mxCell id="30" style="edgeStyle=none;html=1;exitX=0;exitY=0.5;exitDx=0;exitDy=0;entryX=1;entryY=0.75;entryDx=0;entryDy=0;fontSize=12;" edge="1" parent="1" source="29" target="4">
                    <mxGeometry relative="1" as="geometry"/>
                </mxCell>
                <mxCell id="29" value="Tkinter GUI" style="swimlane;fontSize=12;" vertex="1" parent="1">
                    <mxGeometry x="400" y="80" width="310" height="200" as="geometry">
                        <mxRectangle x="290" y="30" width="110" height="30" as="alternateBounds"/>
                    </mxGeometry>
                </mxCell>
                <mxCell id="31" value="" style="ellipse;whiteSpace=wrap;html=1;aspect=fixed;" vertex="1" parent="29">
                    <mxGeometry x="60" y="50" width="20" height="20" as="geometry"/>
                </mxCell>
                <mxCell id="32" value="" style="ellipse;whiteSpace=wrap;html=1;aspect=fixed;" vertex="1" parent="29">
                    <mxGeometry x="210" y="50" width="20" height="20" as="geometry"/>
                </mxCell>
                <mxCell id="33" value="" style="ellipse;whiteSpace=wrap;html=1;aspect=fixed;" vertex="1" parent="29">
                    <mxGeometry x="60" y="130" width="20" height="20" as="geometry"/>
                </mxCell>
                <mxCell id="34" value="" style="ellipse;whiteSpace=wrap;html=1;aspect=fixed;" vertex="1" parent="29">
                    <mxGeometry x="210" y="130" width="20" height="20" as="geometry"/>
                </mxCell>
                <mxCell id="35" value="Serial Port Selector" style="text;html=1;align=center;verticalAlign=middle;resizable=0;points=[];autosize=1;strokeColor=none;fillColor=none;fontSize=12;" vertex="1" parent="29">
                    <mxGeometry x="5" y="80" width="130" height="30" as="geometry"/>
                </mxCell>
                <mxCell id="36" value="Session Managment" style="text;html=1;align=center;verticalAlign=middle;resizable=0;points=[];autosize=1;strokeColor=none;fillColor=none;fontSize=12;" vertex="1" parent="29">
                    <mxGeometry x="155" y="80" width="130" height="30" as="geometry"/>
                </mxCell>
                <mxCell id="37" value="Temp and LED Control" style="text;html=1;align=center;verticalAlign=middle;resizable=0;points=[];autosize=1;strokeColor=none;fillColor=none;fontSize=12;" vertex="1" parent="29">
                    <mxGeometry y="160" width="140" height="30" as="geometry"/>
                </mxCell>
                <mxCell id="38" value="Logging and Display" style="text;html=1;align=center;verticalAlign=middle;resizable=0;points=[];autosize=1;strokeColor=none;fillColor=none;fontSize=12;" vertex="1" parent="29">
                    <mxGeometry x="155" y="160" width="130" height="30" as="geometry"/>
                </mxCell>
                <mxCell id="39" value="Server" style="swimlane;fontSize=12;" vertex="1" parent="1">
                    <mxGeometry x="890" y="80" width="430" height="230" as="geometry"/>
                </mxCell>
                <mxCell id="43" style="edgeStyle=none;html=1;exitX=0.5;exitY=1;exitDx=0;exitDy=0;entryX=0;entryY=0;entryDx=0;entryDy=0;fontSize=12;" edge="1" parent="39" source="40" target="42">
                    <mxGeometry relative="1" as="geometry"/>
                </mxCell>
                <mxCell id="40" value="Hardware Interface" style="rounded=0;whiteSpace=wrap;html=1;fontSize=12;" vertex="1" parent="39">
                    <mxGeometry x="30" y="35" width="120" height="35" as="geometry"/>
                </mxCell>
                <mxCell id="44" style="edgeStyle=none;html=1;exitX=0.5;exitY=1;exitDx=0;exitDy=0;entryX=0.905;entryY=-0.05;entryDx=0;entryDy=0;entryPerimeter=0;fontSize=12;" edge="1" parent="39" source="41" target="42">
                    <mxGeometry relative="1" as="geometry"/>
                </mxCell>
                <mxCell id="41" value="Session Managment" style="rounded=0;whiteSpace=wrap;html=1;fontSize=12;" vertex="1" parent="39">
                    <mxGeometry x="270" y="35" width="120" height="35" as="geometry"/>
                </mxCell>
                <mxCell id="42" value="Response Handling" style="rounded=0;whiteSpace=wrap;html=1;fontSize=12;" vertex="1" parent="39">
                    <mxGeometry x="110" y="150" width="200" height="40" as="geometry"/>
                </mxCell>
                <mxCell id="68" value="controls LED, reads Temp" style="text;html=1;align=center;verticalAlign=middle;resizable=0;points=[];autosize=1;strokeColor=none;fillColor=none;fontSize=12;" vertex="1" parent="39">
                    <mxGeometry x="90" y="85" width="160" height="30" as="geometry"/>
                </mxCell>
                <mxCell id="69" value="manages session" style="text;html=1;align=center;verticalAlign=middle;resizable=0;points=[];autosize=1;strokeColor=none;fillColor=none;fontSize=12;" vertex="1" parent="39">
                    <mxGeometry x="305" y="100" width="120" height="30" as="geometry"/>
                </mxCell>
                <mxCell id="61" style="edgeStyle=none;html=1;exitX=0.25;exitY=0;exitDx=0;exitDy=0;fontSize=12;" edge="1" parent="1" source="45" target="42">
                    <mxGeometry relative="1" as="geometry"/>
                </mxCell>
                <mxCell id="45" value="Request Processing" style="swimlane;fontSize=12;" vertex="1" parent="1">
                    <mxGeometry x="1170" y="370" width="240" height="140" as="geometry"/>
                </mxCell>
                <mxCell id="46" value="" style="ellipse;whiteSpace=wrap;html=1;aspect=fixed;" vertex="1" parent="45">
                    <mxGeometry x="40" y="50" width="20" height="20" as="geometry"/>
                </mxCell>
                <mxCell id="47" value="LED Control" style="text;html=1;align=center;verticalAlign=middle;resizable=0;points=[];autosize=1;strokeColor=none;fillColor=none;fontSize=12;" vertex="1" parent="45">
                    <mxGeometry x="10" y="80" width="90" height="30" as="geometry"/>
                </mxCell>
                <mxCell id="50" value="Temperature Reading" style="text;html=1;align=center;verticalAlign=middle;resizable=0;points=[];autosize=1;strokeColor=none;fillColor=none;fontSize=12;" vertex="1" parent="45">
                    <mxGeometry x="95" y="80" width="140" height="30" as="geometry"/>
                </mxCell>
                <mxCell id="51" value="" style="ellipse;whiteSpace=wrap;html=1;aspect=fixed;" vertex="1" parent="45">
                    <mxGeometry x="145" y="50" width="20" height="20" as="geometry"/>
                </mxCell>
                <mxCell id="60" style="edgeStyle=none;html=1;exitX=0.25;exitY=0;exitDx=0;exitDy=0;entryX=0.25;entryY=1;entryDx=0;entryDy=0;fontSize=12;" edge="1" parent="1" source="52" target="40">
                    <mxGeometry relative="1" as="geometry"/>
                </mxCell>
                <mxCell id="52" value="Hardware Control" style="swimlane;fontSize=12;" vertex="1" parent="1">
                    <mxGeometry x="890" y="370" width="240" height="140" as="geometry"/>
                </mxCell>
                <mxCell id="53" value="" style="ellipse;whiteSpace=wrap;html=1;aspect=fixed;" vertex="1" parent="52">
                    <mxGeometry x="40" y="50" width="20" height="20" as="geometry"/>
                </mxCell>
                <mxCell id="54" value="LED Interface" style="text;html=1;align=center;verticalAlign=middle;resizable=0;points=[];autosize=1;strokeColor=none;fillColor=none;fontSize=12;" vertex="1" parent="52">
                    <mxGeometry x="5" y="80" width="100" height="30" as="geometry"/>
                </mxCell>
                <mxCell id="55" value="Temperature Sensor" style="text;html=1;align=center;verticalAlign=middle;resizable=0;points=[];autosize=1;strokeColor=none;fillColor=none;fontSize=12;" vertex="1" parent="52">
                    <mxGeometry x="100" y="80" width="130" height="30" as="geometry"/>
                </mxCell>
                <mxCell id="56" value="" style="ellipse;whiteSpace=wrap;html=1;aspect=fixed;" vertex="1" parent="52">
                    <mxGeometry x="145" y="50" width="20" height="20" as="geometry"/>
                </mxCell>
                <mxCell id="67" style="edgeStyle=none;html=1;exitX=0;exitY=0.25;exitDx=0;exitDy=0;entryX=1;entryY=1;entryDx=0;entryDy=0;fontSize=12;" edge="1" parent="1" source="62" target="41">
                    <mxGeometry relative="1" as="geometry"/>
                </mxCell>
                <mxCell id="62" value="Session Handling" style="swimlane;fontSize=12;" vertex="1" parent="1">
                    <mxGeometry x="1370" y="150" width="240" height="140" as="geometry"/>
                </mxCell>
                <mxCell id="63" value="" style="ellipse;whiteSpace=wrap;html=1;aspect=fixed;" vertex="1" parent="62">
                    <mxGeometry x="40" y="50" width="20" height="20" as="geometry"/>
                </mxCell>
                <mxCell id="64" value="Session Expiration" style="text;html=1;align=center;verticalAlign=middle;resizable=0;points=[];autosize=1;strokeColor=none;fillColor=none;fontSize=12;" vertex="1" parent="62">
                    <mxGeometry x="-5" y="80" width="120" height="30" as="geometry"/>
                </mxCell>
                <mxCell id="65" value="Single Session&lt;br&gt;&amp;nbsp;Handling" style="text;html=1;align=center;verticalAlign=middle;resizable=0;points=[];autosize=1;strokeColor=none;fillColor=none;fontSize=12;" vertex="1" parent="62">
                    <mxGeometry x="115" y="75" width="100" height="40" as="geometry"/>
                </mxCell>
                <mxCell id="66" value="" style="ellipse;whiteSpace=wrap;html=1;aspect=fixed;" vertex="1" parent="62">
                    <mxGeometry x="155" y="50" width="20" height="20" as="geometry"/>
                </mxCell>
            </root>
        </mxGraphModel>
    </diagram>
</mxfile>